<?xml version="1.0" encoding="UTF-8" standalone="no"?>
<!DOCTYPE svg PUBLIC "-//W3C//DTD SVG 1.1//EN" "http://www.w3.org/Graphics/SVG/1.1/DTD/svg11.dtd">
<svg width="100%" height="100%" viewBox="0 0 67 67" version="1.1" xmlns="http://www.w3.org/2000/svg" xmlns:xlink="http://www.w3.org/1999/xlink" xml:space="preserve" xmlns:serif="http://www.serif.com/" style="fill-rule:evenodd;clip-rule:evenodd;stroke-linejoin:round;stroke-miterlimit:2;">
    <path d="M50.837,48.138L50.837,36.425C50.837,30.15 47.487,27.23 43.021,27.23C39.417,27.23 37.802,29.213 36.902,30.604L36.902,27.71L30.112,27.71C30.202,29.627 30.112,48.137 30.112,48.137L36.902,48.137L36.902,36.729C36.902,36.12 36.946,35.51 37.126,35.074C37.616,33.854 38.733,32.591 40.608,32.591C43.066,32.591 44.048,34.464 44.048,37.209L44.048,48.138L50.837,48.138ZM22.959,24.922C25.326,24.922 26.801,23.352 26.801,21.391C26.757,19.388 25.326,17.863 23.004,17.863C20.682,17.863 19.163,19.387 19.163,21.391C19.163,23.352 20.637,24.922 22.916,24.922L22.959,24.922ZM34,64C17.432,64 4,50.568 4,34C4,17.431 17.432,4 34,4C50.568,4 64,17.431 64,34C64,50.568 50.568,64 34,64ZM26.354,48.137L26.354,27.71L19.565,27.71L19.565,48.137L26.354,48.137Z" style="fill:white;"/>
</svg>
