<svg xmlns="http://www.w3.org/2000/svg" xmlns:xlink="http://www.w3.org/1999/xlink" width="50" height="50" viewBox="0 0 50 50">
  <defs>
    <clipPath id="clip-custom_1">
      <rect width="50" height="50"/>
    </clipPath>
    <clipPath id="clip">
      <use xlink:href="#fill"/>
    </clipPath>
    <clipPath id="clip-2">
      <use xlink:href="#fill-2"/>
    </clipPath>
    <clipPath id="clip-3">
      <use xlink:href="#fill-3"/>
    </clipPath>
    <clipPath id="clip-4">
      <use xlink:href="#fill-4"/>
    </clipPath>
    <clipPath id="clip-5">
      <use xlink:href="#fill-5"/>
    </clipPath>
    <clipPath id="clip-6">
      <use xlink:href="#fill-6"/>
    </clipPath>
    <clipPath id="clip-7">
      <use xlink:href="#fill-7"/>
    </clipPath>
    <clipPath id="clip-8">
      <use xlink:href="#fill-8"/>
    </clipPath>
  </defs>
  <g id="custom_1" data-name="custom – 1" clip-path="url(#clip-custom_1)">
    <g id="Ellipse_1" data-name="Ellipse 1" transform="translate(10 9)" fill="none" stroke="#fff" stroke-width="2">
      <circle cx="16" cy="16" r="16" stroke="none"/>
      <circle cx="16" cy="16" r="15" fill="none"/>
    </g>
    <g id="Rectangle_1" data-name="Rectangle 1" transform="translate(27.5 1.5) rotate(90)" fill="#fff" stroke="#fff" stroke-width="10">
      <rect id="fill" width="7" height="2" rx="1" stroke="none"/>
      <path d="M0,-3h7M5,0v2M7,5h-7M2,2v-2" fill="none" clip-path="url(#clip)"/>
    </g>
    <g id="Rectangle_5" data-name="Rectangle 5" transform="translate(43 25)" fill="#fff" stroke="#fff" stroke-width="10">
      <rect id="fill-2" width="7" height="2" rx="1" stroke="none"/>
      <path d="M0,-3h7M5,0v2M7,5h-7M2,2v-2" fill="none" clip-path="url(#clip-2)"/>
    </g>
    <g id="Rectangle_6" data-name="Rectangle 6" transform="translate(2 25)" fill="#fff" stroke="#fff" stroke-width="10">
      <rect id="fill-3" width="7" height="2" rx="1" stroke="none"/>
      <path d="M0,-3h7M5,0v2M7,5h-7M2,2v-2" fill="none" clip-path="url(#clip-3)"/>
    </g>
    <g id="Rectangle_4" data-name="Rectangle 4" transform="translate(27.5 41.5) rotate(90)" fill="#fff" stroke="#fff" stroke-width="10">
      <rect id="fill-4" width="7" height="2" rx="1" stroke="none"/>
      <path d="M0,-3h7M5,0v2M7,5h-7M2,2v-2" fill="none" clip-path="url(#clip-4)"/>
    </g>
    <g id="Rectangle_7" data-name="Rectangle 7" transform="translate(37.318 12.768) rotate(-45)" fill="#fff" stroke="#fff" stroke-width="10">
      <rect id="fill-5" width="7" height="2" rx="1" stroke="none"/>
      <path d="M0,-3h7M5,0v2M7,5h-7M2,2v-2" fill="none" clip-path="url(#clip-5)"/>
    </g>
    <g id="Rectangle_8" data-name="Rectangle 8" transform="translate(9.318 41.768) rotate(-45)" fill="#fff" stroke="#fff" stroke-width="10">
      <rect id="fill-6" width="7" height="2" rx="1" stroke="none"/>
      <path d="M0,-3h7M5,0v2M7,5h-7M2,2v-2" fill="none" clip-path="url(#clip-6)"/>
    </g>
    <g id="Rectangle_9" data-name="Rectangle 9" transform="translate(8.732 7.818) rotate(45)" fill="#fff" stroke="#fff" stroke-width="10">
      <rect id="fill-7" width="7" height="2" rx="1" stroke="none"/>
      <path d="M0,-3h7M5,0v2M7,5h-7M2,2v-2" fill="none" clip-path="url(#clip-7)"/>
    </g>
    <g id="Rectangle_10" data-name="Rectangle 10" transform="translate(37.732 36.818) rotate(45)" fill="#fff" stroke="#fff" stroke-width="10">
      <rect id="fill-8" width="7" height="2" rx="1" stroke="none"/>
      <path d="M0,-3h7M5,0v2M7,5h-7M2,2v-2" fill="none" clip-path="url(#clip-8)"/>
    </g>
  </g>
</svg>
